<?xml version="1.0" encoding="utf-8"?>
<!-- Generator: Adobe Illustrator 19.2.0, SVG Export Plug-In . SVG Version: 6.00 Build 0)  -->
<svg version="1.1" id="Layer_1" xmlns="http://www.w3.org/2000/svg" xmlns:xlink="http://www.w3.org/1999/xlink" x="0px" y="0px"
	 viewBox="0 0 340 61.667" enable-background="new 0 0 340 61.667" xml:space="preserve">
<g>
	<g>
		<g>
			<path fill="#0085B9" d="M78.599,45.539c0,7.604-5.423,11.169-11.569,11.169c-6.087,0-10.578-4.068-10.578-10.578
				c0-6.549,4.629-11.176,11.138-11.176C74.367,34.954,78.599,39.581,78.599,45.539z M75.359,46.56c0-6.543-3.374-10.149-8.5-10.149
				c-4.096,0-7.17,2.775-7.17,8.698c0,6.48,2.838,10.15,8.07,10.15C71.985,55.259,75.359,52.543,75.359,46.56z"/>
			<path fill="#0085B9" d="M85.314,44.315c-1.355,0-2.045,0.164-2.58,0.989l-0.234,0.1l-0.987-0.069l0.237-2.144l0.229-0.167
				c1.224,0.063,3.336,0.063,5.059,0.063c1.883,0,2.904,0,4.696-0.063l0.128,0.529c-2.446,3.472-4.491,6.746-7.141,11.437
				l0.064,0.104h3.932c1.493,0,2.223-0.201,2.582-0.902l0.236-0.093l0.988,0.064l-0.229,2.055l-0.236,0.162
				c-1.219-0.065-2.543-0.065-5.52-0.065c-1.914,0-3.67,0-5.453,0.065l-0.165-0.532c2.779-3.962,5.451-8.197,7.24-11.369l-0.1-0.164
				H85.314z"/>
			<g>
				<path fill="#0085B9" d="M114.495,53.603l-0.398,1.387c-2.416,1.324-4.362,1.76-7.736,1.76c-5.882,0-10.776-3.841-10.776-10.656
					c0-6.676,5.887-11.173,11.965-11.173c3.072,0,5.629,0.567,6.977,1.189l0.104,0.234l-0.333,2.614l-0.892,0.094l-0.199-0.129
					c-0.429-1.619-2.178-2.478-6.146-2.478c-4.395,0-8.235,3.506-8.235,8.63c0,6.545,3.771,9.784,9.521,9.784
					c1.791,0,3.473-0.432,5.721-1.49L114.495,53.603z"/>
				<path fill="#0085B9" d="M130.204,49.373c0,4.592-3.044,7.207-6.78,7.207c-3.894,0-6.645-2.615-6.645-6.544
					c0-4.399,2.716-7.208,6.645-7.208C127.859,42.828,130.204,46.035,130.204,49.373z M127.46,50.232
					c0-3.507-1.485-6.082-4.231-6.082c-2.411,0-3.698,1.68-3.698,4.823c0,4.004,1.673,6.286,4.094,6.286
					C125.939,55.259,127.46,53.34,127.46,50.232z"/>
				<path fill="#0085B9" d="M143.693,56.449c-0.1-0.368-0.159-0.797-0.159-1.321c-1.261,0.919-2.48,1.453-4.501,1.453
					c-3.832,0-6.244-2.418-6.244-6.119c0-4.591,3.566-7.633,7.641-7.633c0.956,0,2.209,0.161,3.105,0.461c0-4.004,0-6.35-0.03-6.879
					c-0.07-1.222-0.211-1.947-0.535-2.281l0.131-0.529l2.514-0.662l0.429,0.203c-0.163,1.42-0.163,2.904-0.163,11.535
					c0,5.223,0.064,6.809,0.163,9.586c0,0.27,0.267,0.403,0.734,0.403l0.06,1.056c-0.957,0.166-1.717,0.359-2.543,0.792
					L143.693,56.449z M143.534,47.522c0-2.118-1.091-3.372-3.478-3.372c-2.672,0-4.59,2.176-4.59,5.118
					c0,3.903,2.046,5.756,4.59,5.756c1.227,0,2.15-0.33,3.012-1.124c0.436-0.393,0.466-0.893,0.466-1.654V47.522z"/>
				<path fill="#0085B9" d="M157.948,54.957c0.995,0,1.984-0.264,2.74-0.625l0.17,0.067l0.363,0.89
					c-1.157,0.791-2.614,1.291-4.599,1.291c-4.061,0-6.839-2.449-6.839-6.878c0-3.732,2.679-6.874,6.483-6.874
					c3.565,0,5.354,2.606,5.354,5.948c0,0.56-0.596,0.66-5.818,0.66h-3.404C152.492,53.075,154.778,54.957,157.948,54.957z
					 M155.803,48.114c2.646,0,3.242-0.098,3.242-0.333c0-2.077-0.994-3.631-3.043-3.631c-1.954,0-3.247,1.354-3.571,3.964H155.803z"
					/>
			</g>
		</g>
	</g>
</g>
<g>
	<path fill="#484848" d="M186.451,56.805v-9.927c0-0.24,0.033-0.922,0.103-2.056h-0.033c-0.207,0.524-0.375,0.932-0.512,1.218
		l-4.975,10.765h-0.307l-4.993-10.706c-0.164-0.345-0.32-0.788-0.463-1.317h-0.042c0.04,0.624,0.067,1.246,0.067,1.861v10.162
		h-0.968v-13.98h0.901l5.214,11.256c0.034,0.069,0.068,0.154,0.107,0.268c0.039,0.111,0.082,0.221,0.128,0.332
		c0.062,0.167,0.132,0.355,0.202,0.564h0.061l0.106-0.311c0.005-0.028,0.121-0.335,0.333-0.926l5.143-11.182h0.854v13.979
		C187.377,56.805,186.451,56.805,186.451,56.805z"/>
	<path fill="#484848" d="M196.732,56.805v-1.998h-0.033c-0.324,0.682-0.785,1.229-1.394,1.632c-0.61,0.404-1.28,0.611-2.024,0.611
		c-0.951,0-1.699-0.268-2.247-0.8c-0.555-0.534-0.829-1.208-0.829-2.019c0-1.74,1.15-2.794,3.457-3.163l3.069-0.449
		c0-2.149-0.8-3.225-2.414-3.225c-1.1,0-2.172,0.442-3.206,1.327v-1.08c0.367-0.292,0.871-0.546,1.503-0.751
		c0.635-0.209,1.231-0.311,1.789-0.311c1.026,0,1.819,0.318,2.383,0.951c0.565,0.64,0.844,1.566,0.844,2.781v6.494
		C197.63,56.805,196.732,56.805,196.732,56.805z M193.986,51.832c-1.044,0.151-1.782,0.392-2.207,0.726
		c-0.421,0.334-0.632,0.88-0.632,1.631c0,0.593,0.198,1.084,0.591,1.466c0.39,0.382,0.939,0.578,1.645,0.578
		c0.959,0,1.762-0.359,2.393-1.07c0.64-0.712,0.956-1.628,0.956-2.756V51.43L193.986,51.832z"/>
	<path fill="#484848" d="M208.622,56.066c0,1.879-0.415,3.251-1.234,4.125c-0.817,0.872-2.086,1.305-3.817,1.305
		c-0.966,0-1.957-0.255-2.973-0.76v-0.937c1.054,0.584,2.049,0.878,2.993,0.878c2.756,0,4.137-1.457,4.137-4.371v-1.295h-0.038
		c-0.791,1.359-1.992,2.039-3.602,2.039c-1.23,0-2.233-0.443-3.003-1.336c-0.784-0.89-1.17-2.132-1.17-3.727
		c0-1.59,0.418-2.89,1.256-3.898c0.837-1.006,1.944-1.51,3.318-1.51c1.466,0,2.534,0.607,3.2,1.822h0.038v-1.577h0.895
		L208.622,56.066L208.622,56.066z M207.728,50.651c0-0.882-0.305-1.645-0.895-2.288c-0.594-0.643-1.37-0.968-2.331-0.968
		c-1.097,0-1.981,0.413-2.648,1.238c-0.673,0.829-1.005,1.919-1.005,3.276c0,1.37,0.312,2.428,0.922,3.186
		c0.615,0.76,1.423,1.139,2.434,1.139c1.073,0,1.922-0.351,2.559-1.043c0.637-0.7,0.963-1.549,0.963-2.56L207.728,50.651
		L207.728,50.651z"/>
	<path fill="#484848" d="M211.822,56.805v-9.981h0.898v9.981H211.822z"/>
	<path fill="#484848" d="M222.381,56.368c-0.738,0.453-1.632,0.682-2.652,0.682c-1.365,0-2.455-0.464-3.288-1.399
		c-0.828-0.932-1.245-2.153-1.245-3.664c0-1.587,0.467-2.883,1.406-3.895c0.935-1.005,2.138-1.513,3.601-1.513
		c0.764,0,1.5,0.155,2.217,0.464v1.018c-0.718-0.446-1.5-0.666-2.352-0.666c-1.168,0-2.119,0.426-2.845,1.265
		c-0.725,0.842-1.095,1.93-1.095,3.268c0,1.299,0.334,2.339,0.998,3.124c0.671,0.788,1.551,1.182,2.641,1.182
		c1,0,1.874-0.271,2.613-0.803L222.381,56.368L222.381,56.368z"/>
	<path fill="#484848" d="M230.746,56.805v-1.998h-0.039c-0.317,0.682-0.78,1.229-1.389,1.632c-0.607,0.404-1.282,0.611-2.021,0.611
		c-0.952,0-1.704-0.268-2.256-0.8c-0.553-0.534-0.827-1.208-0.827-2.019c0-1.74,1.151-2.794,3.458-3.163l3.074-0.449
		c0-2.149-0.804-3.225-2.419-3.225c-1.096,0-2.165,0.442-3.206,1.327v-1.08c0.363-0.292,0.872-0.546,1.504-0.751
		c0.631-0.209,1.231-0.311,1.789-0.311c1.026,0,1.823,0.318,2.389,0.951c0.559,0.64,0.838,1.566,0.838,2.781v6.494
		C231.641,56.805,230.746,56.805,230.746,56.805z M227.995,51.832c-1.045,0.151-1.777,0.392-2.202,0.726
		c-0.427,0.334-0.631,0.88-0.631,1.631c0,0.593,0.193,1.084,0.589,1.466c0.391,0.382,0.94,0.578,1.641,0.578
		c0.961,0,1.761-0.359,2.394-1.07c0.644-0.712,0.961-1.628,0.961-2.756V51.43L227.995,51.832z"/>
	<path fill="#484848" d="M234.643,56.805V42.022h0.901v14.782L234.643,56.805L234.643,56.805z"/>
	<path fill="#484848" d="M244.404,56.805v-13.98h3.501c2.321,0,4.086,0.577,5.294,1.733c1.208,1.158,1.813,2.843,1.813,5.061
		c0,2.133-0.647,3.863-1.944,5.193c-1.298,1.327-3.085,1.992-5.37,1.992L244.404,56.805L244.404,56.805z M245.372,43.711v12.217
		h2.189c2.078,0,3.67-0.537,4.781-1.614c1.109-1.075,1.664-2.628,1.664-4.655c0-3.966-2.082-5.948-6.248-5.948H245.372z"/>
	<path fill="#484848" d="M257.883,51.852c0,1.374,0.312,2.446,0.948,3.217c0.631,0.774,1.505,1.164,2.608,1.164
		c1.113,0,2.208-0.418,3.279-1.24v0.957c-1.04,0.731-2.191,1.099-3.465,1.099c-1.287,0-2.328-0.46-3.116-1.387
		c-0.8-0.919-1.196-2.223-1.196-3.908c0-1.458,0.416-2.681,1.246-3.679c0.827-1.001,1.902-1.496,3.224-1.496
		c1.246,0,2.201,0.435,2.867,1.305c0.66,0.871,0.994,2.061,0.994,3.566v0.402C265.272,51.852,257.883,51.852,257.883,51.852z
		 M264.335,51.032c-0.039-1.149-0.312-2.043-0.827-2.681c-0.519-0.636-1.224-0.957-2.129-0.957c-0.931,0-1.708,0.316-2.322,0.945
		c-0.616,0.625-0.993,1.523-1.138,2.693H264.335z"/>
	<path fill="#484848" d="M268.687,55.028h-0.042v1.776h-0.898V42.022h0.898v6.856h0.042c0.353-0.735,0.871-1.304,1.535-1.702
		c0.666-0.399,1.398-0.599,2.2-0.599c1.265,0,2.253,0.435,2.969,1.31c0.712,0.876,1.066,2.063,1.066,3.562
		c0,1.671-0.412,3.025-1.241,4.053c-0.826,1.031-1.894,1.547-3.214,1.547C270.504,57.049,269.401,56.376,268.687,55.028z
		 M268.646,51.313v1.259c0,1.003,0.32,1.861,0.947,2.579c0.629,0.719,1.459,1.081,2.488,1.081c1.022,0,1.844-0.437,2.486-1.315
		c0.638-0.873,0.953-2.025,0.953-3.448c0-1.246-0.294-2.235-0.878-2.972c-0.581-0.734-1.364-1.103-2.337-1.103
		c-1.168,0-2.063,0.391-2.7,1.173C268.966,49.347,268.646,50.262,268.646,51.313z"/>
	<path fill="#484848" d="M285.522,56.805v-1.811h-0.037c-0.695,1.368-1.765,2.056-3.219,2.056c-2.357,0-3.535-1.485-3.535-4.457
		v-5.77h0.904v5.545c0,1.355,0.223,2.333,0.664,2.945c0.448,0.612,1.15,0.921,2.099,0.921c0.933,0,1.687-0.346,2.259-1.027
		c0.579-0.683,0.864-1.594,0.864-2.728v-5.656h0.9v9.981h-0.899V56.805z"/>
	<path fill="#484848" d="M297.607,56.066c0,1.879-0.414,3.251-1.233,4.125c-0.819,0.872-2.091,1.305-3.821,1.305
		c-0.961,0-1.953-0.255-2.971-0.76v-0.937c1.053,0.584,2.049,0.878,2.994,0.878c2.754,0,4.131-1.457,4.131-4.371v-1.295h-0.036
		c-0.789,1.359-1.988,2.039-3.601,2.039c-1.223,0-2.229-0.443-3.007-1.336c-0.775-0.89-1.164-2.132-1.164-3.727
		c0-1.59,0.418-2.89,1.256-3.898c0.839-1.006,1.942-1.51,3.316-1.51c1.472,0,2.534,0.607,3.201,1.822h0.036v-1.577h0.9
		L297.607,56.066L297.607,56.066z M296.707,50.651c0-0.882-0.294-1.645-0.896-2.288c-0.593-0.643-1.369-0.968-2.32-0.968
		c-1.099,0-1.983,0.413-2.656,1.238c-0.666,0.829-0.997,1.919-0.997,3.276c0,1.37,0.304,2.428,0.918,3.186
		c0.612,0.76,1.425,1.139,2.433,1.139c1.073,0,1.926-0.351,2.566-1.043c0.631-0.7,0.954-1.549,0.954-2.56v-1.98H296.707z"/>
	<path fill="#484848" d="M308.789,56.066c0,1.879-0.415,3.251-1.23,4.125c-0.824,0.872-2.097,1.305-3.824,1.305
		c-0.962,0-1.952-0.255-2.971-0.76v-0.937c1.052,0.584,2.048,0.878,2.992,0.878c2.755,0,4.136-1.457,4.136-4.371v-1.295h-0.035
		c-0.793,1.359-1.992,2.039-3.6,2.039c-1.229,0-2.235-0.443-3.008-1.336c-0.78-0.89-1.164-2.132-1.164-3.727
		c0-1.59,0.415-2.89,1.256-3.898c0.835-1.006,1.944-1.51,3.318-1.51c1.466,0,2.525,0.607,3.198,1.822h0.035v-1.577h0.898
		L308.789,56.066L308.789,56.066z M307.891,50.651c0-0.882-0.301-1.645-0.893-2.288c-0.598-0.643-1.368-0.968-2.325-0.968
		c-1.101,0-1.986,0.413-2.652,1.238c-0.673,0.829-1.005,1.919-1.005,3.276c0,1.37,0.31,2.428,0.922,3.186
		c0.613,0.76,1.424,1.139,2.434,1.139c1.068,0,1.927-0.351,2.558-1.043c0.64-0.7,0.961-1.549,0.961-2.56L307.891,50.651
		L307.891,50.651z"/>
	<path fill="#484848" d="M312.424,44.304c-0.196,0-0.363-0.069-0.517-0.215c-0.147-0.143-0.227-0.324-0.227-0.545
		c0-0.213,0.08-0.389,0.231-0.524c0.154-0.129,0.323-0.194,0.513-0.194c0.201,0,0.381,0.062,0.537,0.193
		c0.151,0.132,0.223,0.302,0.223,0.525c0,0.211-0.072,0.387-0.22,0.537C312.811,44.232,312.632,44.304,312.424,44.304z
		 M311.99,56.805v-9.981h0.895v9.981H311.99z"/>
	<path fill="#484848" d="M322.866,56.805v-5.811c0-2.4-0.857-3.599-2.592-3.599c-0.961,0-1.749,0.357-2.368,1.06
		c-0.614,0.703-0.927,1.579-0.927,2.614v5.737h-0.895v-9.981h0.895v1.809h0.038c0.729-1.37,1.869-2.053,3.415-2.053
		c1.075,0,1.908,0.357,2.48,1.078c0.568,0.716,0.854,1.744,0.854,3.076v6.072h-0.9V56.805z"/>
	<path fill="#484848" d="M334.758,56.066c0,1.879-0.416,3.251-1.232,4.125c-0.819,0.872-2.091,1.305-3.821,1.305
		c-0.964,0-1.955-0.255-2.974-0.76v-0.937c1.05,0.584,2.047,0.878,2.993,0.878c2.755,0,4.132-1.457,4.132-4.371v-1.295h-0.035
		c-0.786,1.359-1.985,2.039-3.6,2.039c-1.232,0-2.233-0.443-3.01-1.336c-0.776-0.89-1.162-2.132-1.162-3.727
		c0-1.59,0.419-2.89,1.257-3.898c0.836-1.006,1.945-1.51,3.318-1.51c1.465,0,2.532,0.607,3.197,1.822h0.035v-1.577h0.902
		L334.758,56.066L334.758,56.066z M333.856,50.651c0-0.882-0.291-1.645-0.893-2.288c-0.59-0.643-1.365-0.968-2.325-0.968
		c-1.099,0-1.982,0.413-2.65,1.238c-0.671,0.829-1.006,1.919-1.006,3.276c0,1.37,0.307,2.428,0.925,3.186
		c0.61,0.76,1.424,1.139,2.424,1.139c1.08,0,1.932-0.351,2.568-1.043c0.642-0.7,0.957-1.549,0.957-2.56L333.856,50.651
		L333.856,50.651z"/>
	<g>
		<g>
			<polygon fill="#FDD103" points="212.148,40.33 212.707,42.055 214.516,42.055 213.051,43.118 213.616,44.845 212.148,43.779 
				210.679,44.845 211.237,43.118 209.767,42.055 211.58,42.055 			"/>
		</g>
	</g>
</g>
<g>
	<path fill="#FADB00" d="M43.602,49.349c-4.013-5.515,13.389-10.899,6.288-15.333C35.4,24.97,13.71,18.436,13.71,18.436
		l16.955,8.696c11.849,6.963,6.74,7.83-4.285,15.338c-5.546,3.776-14.117,11.064-20.096,14.196H56.1
		C54.076,55.101,47.014,54.043,43.602,49.349z"/>
</g>
<g>
	<path fill="#0089B8" d="M30.315,3.123C22.178,0.704,13.174,3.307,7.736,9.844c-5.35,6.432-6.894,15.59-5.076,23.639
		c1.016,4.499,3.272,8.759,6.612,11.96c0.788,0.755,1.633,1.45,2.526,2.077c0.45,0.316,0.911,0.615,1.384,0.896
		c0.345,0.205,1.083,0.818,1.467,0.801c0.358-0.016,1.23-0.869,1.544-1.091c0.503-0.355,1.006-0.71,1.51-1.064
		c1.048-0.737,2.098-1.471,3.152-2.2c-4.92-2.783-7.251-8.828-7.761-14.191c-0.546-5.744-0.186-12.037,2.875-17.085
		c2.892-4.769,8.461-7.889,13.966-5.576c5.18,2.177,8.205,7.901,9.5,13.072c0.433,1.727,0.791,3.517,0.805,5.305
		c0.006,0.853-0.137,0.883,0.631,1.281c1.945,1.008,3.978,1.837,5.913,2.864c0.319-1.109,1.001-2.431,0.855-3.615
		C46.436,17.095,40.404,6.122,30.315,3.123z"/>
</g>
</svg>
